# xmcd CD database file
#
# Track frame offsets:
#	150
#	11764
#	25057
#	34413
#	57943
#	72648
#	95803
#	111080
#	122719
#	138041
#	152248
#	167590
#	183329
#	195792
#	216579
#	233888
#	251113
#	265090
#	290491
#
# Disc length: 4125 seconds
#
# Revision: 0
# Processed by: cddbd v1.5.2PL0 Copyright (c) Steve Scherf et al.
# Submitted via: CDex 1.51
#
DISCID=18101b13
DTITLE=Blue Street Jazz Band - Then and Now Celebrating 20 Years (Disk 1)
DYEAR=2003
DGENRE=Jazz
TTITLE0=Mahogany Hall Stomp
TTITLE1=Singing the Blues
TTITLE2=Five Guys Named Moe
TTITLE3=Montana Blues
TTITLE4=Weary Blues
TTITLE5=Teach Me Tonight
TTITLE6=That's Enough of that Stuff
TTITLE7=Blues in the Air
TTITLE8=Stompin' at the Savoy
TTITLE9=Original Dixieland Jass Band One-Step
TTITLE10=In a Georgia Cabin
TTITLE11=Riverboat Shuffle
TTITLE12=I Got Rhythm
TTITLE13=I'm Walkin' 
TTITLE14=Snake Rag
TTITLE15=Baryshnakov
TTITLE16=Cherokee Maiden
TTITLE17=At Last
TTITLE18=Ruffner's Auto Rag
EXTD=YEAR: 2003
EXTT0=
EXTT1=
EXTT2=
EXTT3=
EXTT4=
EXTT5=
EXTT6=
EXTT7=
EXTT8=
EXTT9=
EXTT10=
EXTT11=
EXTT12=
EXTT13=
EXTT14=
EXTT15=
EXTT16=
EXTT17=
EXTT18=
PLAYORDER=
